<svg version="1.1" xmlns="http://www.w3.org/2000/svg" xmlns:xlink="http://www.w3.org/1999/xlink" width="512.000000pt" height="512.000000pt" viewBox="0,0,256,256"><g fill="#ff5722" fill-rule="nonzero" stroke="none" stroke-width="1" stroke-linecap="butt" stroke-linejoin="miter" stroke-miterlimit="10" stroke-dasharray="" stroke-dashoffset="0" font-family="none" font-weight="none" font-size="none" text-anchor="none" style="mix-blend-mode: normal"><g transform="translate(0,0.03514) scale(0.5,0.5)"><g transform="translate(0,512) scale(0.1,-0.1)"><path d="M651,5104c-223,-60 -372,-289 -333,-513c17,-100 56,-176 127,-246c63,-64 145,-110 215,-121c23,-4 39,-8 38,-10c-2,-2 -39,-10 -83,-19c-338,-70 -586,-345 -611,-679c-6,-71 -4,-87 15,-124c14,-28 35,-48 61,-62c37,-19 58,-20 320,-20h280l176,-265l177,-264l46,38c59,49 170,121 188,121c7,0 13,2 13,5c0,3 -54,86 -120,185l-120,180h175c205,0 239,10 275,80c49,97 1,318 -105,480c-110,168 -281,284 -480,325c-44,9 -81,17 -83,19c-1,2 16,6 39,10c160,26 310,186 341,365c54,316 -246,597 -551,515z"></path><path d="M2451,5104c-223,-60 -372,-289 -333,-513c17,-100 56,-176 127,-246c63,-64 145,-110 215,-121c23,-4 39,-8 38,-10c-2,-2 -39,-10 -83,-19c-158,-33 -282,-102 -395,-221c-109,-114 -163,-217 -194,-366c-32,-155 -13,-239 64,-278c36,-18 58,-20 280,-20h240v-150v-150h150h150v150v150h240c222,0 244,2 280,20c77,39 96,123 64,278c-41,196 -158,369 -327,479c-86,56 -160,87 -262,108c-44,9 -81,17 -83,19c-1,2 16,6 39,10c160,26 310,186 341,365c54,316 -246,597 -551,515z"></path><path d="M4251,5104c-223,-60 -372,-289 -333,-513c17,-100 56,-176 127,-246c63,-64 145,-110 215,-121c23,-4 39,-8 38,-10c-2,-2 -39,-10 -83,-19c-158,-33 -282,-102 -395,-221c-109,-114 -163,-217 -194,-366c-32,-155 -13,-239 64,-278c35,-18 59,-20 215,-20h175l-121,-181c-66,-99 -119,-182 -117,-182c75,-37 116,-62 174,-109l72,-56l176,264l176,264h280c262,0 283,1 320,20c26,14 47,34 61,62c19,37 21,53 15,124c-15,199 -114,388 -273,518c-105,87 -230,142 -388,171l-40,8l50,11c225,53 375,280 337,509c-44,264 -303,438 -551,371z"></path><path d="M1461,2694c-115,-31 -220,-113 -276,-216c-16,-29 -75,-193 -131,-365l-102,-313h729h729v455v455l-447,-1c-358,0 -459,-3 -502,-15z"></path><path d="M2710,2255v-455h729h729l-102,313c-56,172 -115,336 -131,365c-33,61 -124,151 -183,181c-95,48 -127,51 -599,51h-443z"></path><path d="M605,1483c-250,-53 -456,-226 -552,-463c-43,-108 -53,-180 -53,-398c0,-184 2,-207 20,-242c36,-70 71,-80 270,-80h170v33c0,55 37,184 72,250c42,81 164,203 245,245c80,42 198,72 283,72c85,0 203,-30 283,-72c81,-42 203,-164 245,-245c35,-66 72,-195 72,-250v-33h900h900v33c0,55 37,184 72,250c42,81 164,203 245,245c80,42 198,72 283,72c85,0 203,-30 283,-72c81,-42 203,-164 245,-245c35,-66 72,-195 72,-250v-33h170c151,0 175,2 210,20c69,35 80,71 80,265v165h-170c-199,0 -234,10 -270,80c-38,75 -14,157 58,198c36,20 53,22 176,22c75,0 136,3 136,6c0,23 -73,135 -123,190c-100,109 -223,185 -372,230c-57,18 -158,19 -1970,21c-1669,1 -1919,0 -1980,-14z"></path><path d="M963,582c-251,-90 -272,-432 -35,-549c81,-40 183,-40 264,0c107,53 163,144 163,267c0,85 -21,142 -74,203c-72,81 -213,117 -318,79z"></path><path d="M3963,582c-251,-90 -272,-432 -35,-549c81,-40 183,-40 264,0c107,53 163,144 163,267c0,85 -21,142 -74,203c-72,81 -213,117 -318,79z"></path></g></g></g></svg>