<svg version="1.1" xmlns="http://www.w3.org/2000/svg" xmlns:xlink="http://www.w3.org/1999/xlink" width="512.000000pt" height="512.000000pt" viewBox="0,0,256,256"><g fill="#ff5722" fill-rule="nonzero" stroke="none" stroke-width="1" stroke-linecap="butt" stroke-linejoin="miter" stroke-miterlimit="10" stroke-dasharray="" stroke-dashoffset="0" font-family="none" font-weight="none" font-size="none" text-anchor="none" style="mix-blend-mode: normal"><g transform="translate(0.0096,-0.01727) scale(0.5,0.5)"><g transform="translate(0,512) scale(0.1,-0.1)"><path d="M1600,3916c-240,-67 -506,-339 -813,-831l-47,-77l-55,50c-30,27 -79,60 -110,73c-51,21 -55,25 -55,55c0,23 -8,39 -29,56c-35,30 -82,43 -233,64c-135,18 -150,14 -179,-49c-25,-57 -25,-111 2,-138c29,-29 112,-65 204,-89c99,-25 136,-25 168,0c51,40 166,17 197,-40c10,-18 7,-22 -24,-35c-21,-9 -68,-15 -118,-15c-66,0 -93,-5 -133,-24c-64,-29 -119,-91 -158,-175c-28,-62 -30,-75 -36,-231c-4,-91 -3,-318 2,-505l8,-340l29,-48c30,-48 30,-50 30,-193c0,-109 4,-152 15,-174c30,-59 37,-60 297,-60h238l32,29c31,28 33,34 38,115l5,87l1678,2l1677,2v-73c0,-79 15,-120 52,-146c19,-13 61,-16 261,-16h239l34,34l34,34v147v146l30,38c17,20 35,53 41,72c15,50 24,909 11,981c-22,114 -97,230 -176,270c-30,16 -68,23 -146,28c-121,7 -156,20 -139,51c30,56 136,77 194,39c38,-25 72,-25 170,0c92,23 170,58 204,90c20,20 23,29 18,72c-7,58 -40,116 -70,123c-31,8 -292,-32 -325,-49c-41,-21 -65,-53 -64,-85c1,-27 -4,-31 -49,-46c-32,-11 -71,-36 -108,-71c-68,-63 -58,-68 -146,76c-214,352 -472,634 -670,733c-119,59 -76,57 -1069,56c-698,-1 -922,-4 -956,-13zM3554,3787c121,-56 266,-186 416,-371c67,-84 190,-258 190,-271c0,-3 -720,-5 -1600,-5c-880,0 -1600,2 -1600,5c0,10 97,149 167,240c173,223 352,379 486,421c34,10 221,12 962,11l920,-2zM3297,2393c44,-20 78,-88 68,-134c-8,-34 -130,-224 -165,-254c-22,-20 -36,-20 -640,-20c-718,0 -625,-18 -731,142c-80,121 -87,146 -61,206c36,81 -6,77 790,77c639,0 707,-2 739,-17zM1222,2370c34,-26 129,-195 130,-231c1,-35 -17,-58 -59,-76c-48,-19 -669,-19 -717,1c-26,11 -44,33 -84,103c-65,114 -72,131 -60,166c20,55 31,56 414,57c335,0 352,-1 376,-20zM4649,2375c35,-17 52,-60 39,-95c-5,-13 -32,-64 -60,-113c-40,-70 -58,-92 -84,-103c-48,-20 -669,-20 -717,-1c-76,32 -78,71 -7,195c81,143 43,132 452,132c287,0 354,-3 377,-15zM3888,1685c7,-14 12,-30 12,-35c0,-6 -497,-10 -1340,-10c-843,0 -1340,4 -1340,10c0,5 5,21 12,35l11,25h1317h1317zM3900,1580c0,-11 -9,-29 -20,-40c-20,-20 -33,-20 -1320,-20c-1287,0 -1300,0 -1320,20c-11,11 -20,29 -20,40c0,20 7,20 1340,20c1333,0 1340,0 1340,-20z"></path><path d="M1852,2324c-12,-8 -22,-26 -22,-39c0,-35 123,-221 152,-229c30,-8 1126,-8 1156,0c29,8 152,194 152,229c0,56 17,55 -730,55c-604,0 -688,-2 -708,-16z"></path><path d="M566,2338c23,-75 59,-108 128,-115c75,-9 135,33 156,108c8,26 6,29 -16,29c-19,0 -28,-8 -35,-29c-13,-37 -49,-61 -91,-61c-42,0 -72,20 -88,60c-9,22 -19,30 -37,30c-21,0 -23,-3 -17,-22z"></path><path d="M630,2351c0,-33 46,-71 85,-71c18,0 75,52 75,69c0,7 -30,11 -80,11c-44,0 -80,-4 -80,-9z"></path><path d="M875,2333c16,-66 73,-113 138,-113c67,0 131,48 143,108c6,30 4,32 -20,32c-19,0 -26,-5 -26,-19c0,-30 -56,-71 -97,-71c-37,0 -93,44 -93,74c0,11 -9,16 -26,16c-24,0 -25,-3 -19,-27z"></path><path d="M940,2351c0,-39 53,-76 95,-65c24,6 65,47 65,65c0,5 -36,9 -80,9c-44,0 -80,-4 -80,-9z"></path><path d="M3964,2328c12,-60 76,-108 143,-108c65,0 122,47 138,113c6,24 5,27 -19,27c-17,0 -26,-5 -26,-16c0,-8 -13,-29 -29,-45c-40,-39 -97,-41 -135,-3c-14,15 -26,35 -26,45c0,14 -7,19 -26,19c-24,0 -26,-2 -20,-32z"></path><path d="M4020,2351c0,-18 41,-59 65,-65c42,-11 95,26 95,65c0,5 -36,9 -80,9c-44,0 -80,-4 -80,-9z"></path><path d="M4270,2339c0,-55 61,-110 129,-116c76,-7 132,34 156,115c5,19 3,22 -18,22c-18,0 -28,-8 -37,-30c-16,-40 -46,-60 -88,-60c-42,0 -78,24 -91,61c-12,35 -51,42 -51,8z"></path><path d="M4330,2349c0,-17 57,-69 75,-69c35,0 84,39 85,68c0,8 -22,12 -80,12c-50,0 -80,-4 -80,-11z"></path></g></g></g></svg>