<svg version="1.1" xmlns="http://www.w3.org/2000/svg" xmlns:xlink="http://www.w3.org/1999/xlink" width="512.000000pt" height="512.000000pt" viewBox="0,0,256,256"><g fill="#ff5722" fill-rule="nonzero" stroke="none" stroke-width="1" stroke-linecap="butt" stroke-linejoin="miter" stroke-miterlimit="10" stroke-dasharray="" stroke-dashoffset="0" font-family="none" font-weight="none" font-size="none" text-anchor="none" style="mix-blend-mode: normal"><g transform="scale(0.5,0.5)"><g transform="translate(0,512) scale(0.1,-0.1)"><path d="M1020,4656c-504,-166 -930,-311 -948,-322c-34,-19 -72,-85 -72,-122c0,-44 32,-96 304,-496l276,-406l-276,-406c-273,-402 -304,-452 -304,-496c0,-41 38,-103 78,-125c44,-25 1851,-623 1881,-623c33,0 90,27 111,52c11,13 124,179 251,371c128,191 235,347 239,347c4,0 111,-156 239,-347c127,-192 240,-358 251,-371c21,-25 78,-52 111,-52c30,0 1837,598 1881,623c40,22 78,84 78,125c0,44 -31,94 -304,496l-276,406l276,406c272,400 304,452 304,496c0,41 -38,103 -78,125c-20,11 -449,157 -953,323c-1004,332 -955,319 -1022,260c-18,-15 -138,-186 -266,-379c-129,-193 -237,-351 -241,-351c-4,0 -111,157 -239,349c-128,192 -245,360 -259,374c-30,29 -72,47 -105,47c-12,0 -434,-137 -937,-304zM3217,3533c359,-120 653,-220 653,-223c0,-3 -295,-103 -655,-223l-655,-219l-655,219c-360,120 -655,220 -655,223c0,5 1285,438 1305,439c5,1 303,-97 662,-216z"></path><path d="M2427,1701c-73,-108 -146,-206 -172,-229c-89,-78 -221,-121 -338,-108c-40,4 -276,77 -677,211c-339,113 -619,205 -623,205c-4,0 -7,-200 -7,-445c0,-487 0,-488 58,-537c23,-19 268,-105 949,-332c505,-168 929,-306 943,-306c14,0 438,138 943,306c681,227 926,313 949,332c58,49 58,50 58,537c0,245 -3,445 -7,445c-4,0 -286,-93 -626,-206c-408,-136 -639,-208 -678,-211c-115,-11 -247,33 -334,109c-26,23 -99,121 -172,229c-70,104 -129,189 -133,189c-4,0 -63,-85 -133,-189z"></path></g></g></g></svg>