<svg version="1.1" xmlns="http://www.w3.org/2000/svg" xmlns:xlink="http://www.w3.org/1999/xlink" width="512.000000pt" height="512.000000pt" viewBox="0,0,256,256"><g fill="#ff5722" fill-rule="nonzero" stroke="none" stroke-width="1" stroke-linecap="butt" stroke-linejoin="miter" stroke-miterlimit="10" stroke-dasharray="" stroke-dashoffset="0" font-family="none" font-weight="none" font-size="none" text-anchor="none" style="mix-blend-mode: normal"><g transform="translate(0,-0.04019) scale(0.5,0.5)"><g transform="translate(0,512) scale(0.1,-0.1)"><path d="M1915,4605c-5,-2 -22,-6 -37,-9c-39,-9 -98,-64 -119,-111c-16,-34 -19,-68 -19,-232v-191l-92,-22c-256,-59 -507,-167 -615,-265c-111,-100 -244,-322 -353,-587l-52,-128h-275h-275l-33,-33c-19,-19 -37,-46 -41,-62c-8,-33 59,-379 86,-442c25,-56 64,-75 168,-81c45,-2 82,-6 82,-8c0,-2 -20,-32 -45,-67c-55,-79 -94,-166 -125,-277c-31,-109 -34,-325 -7,-434c39,-156 100,-272 201,-385l56,-64v-266c0,-264 0,-268 25,-317c32,-65 87,-100 168,-109c34,-4 164,-5 288,-3l226,3l48,30c32,20 56,45 72,74c21,40 23,57 23,188v143h853c470,0 1050,-3 1290,-7l437,-6v-137c0,-124 2,-141 23,-181c16,-29 40,-54 72,-74l48,-30l236,-3c130,-2 259,-1 287,3c62,7 120,43 154,93c25,37 25,38 28,316l3,279l65,71c76,83 153,230 186,351c31,117 31,336 -1,455c-28,103 -86,224 -146,305l-45,60l102,5c58,3 113,11 126,18c13,8 32,32 42,55c27,63 94,409 86,442c-4,16 -22,43 -41,62l-33,33h-275h-274l-53,128c-108,263 -220,454 -337,569c-62,62 -90,81 -195,132c-130,63 -283,116 -435,151l-93,22v189c0,206 -6,238 -58,292c-62,65 -22,62 -742,64c-360,1 -659,0 -665,-2zM2835,3735c397,-19 783,-113 968,-236c81,-54 177,-218 288,-497c27,-67 49,-127 49,-132c0,-7 -551,-10 -1580,-10c-1104,0 -1580,3 -1580,11c0,5 24,70 54,144c103,252 199,424 265,473c179,132 589,229 1056,251c166,8 234,7 480,-4zM1223,2185c139,-42 247,-168 267,-314c17,-126 -27,-248 -122,-336c-78,-72 -146,-99 -258,-99c-112,0 -180,27 -258,99c-186,172 -164,462 45,601c30,19 73,41 96,49c57,18 171,18 230,0zM4175,2167c302,-140 298,-564 -6,-701c-188,-85 -412,-1 -500,189c-67,143 -42,308 65,423c43,47 79,71 145,99c81,34 211,30 296,-10z"></path></g></g></g></svg>